<svg width="50" height="50" viewBox="0 0 50 50" fill="none" xmlns="http://www.w3.org/2000/svg">
<path d="M41.7953 38.9531C44.0393 36.2533 45.5999 33.0527 46.3453 29.6221C47.0907 26.1916 46.9989 22.632 46.0776 19.2444C45.1564 15.8568 43.4327 12.741 41.0526 10.1604C38.6724 7.57987 35.7058 5.61054 32.4035 4.41902C29.1013 3.22751 25.5607 2.84886 22.0812 3.31511C18.6017 3.78136 15.2857 5.07879 12.4136 7.09765C9.54159 9.11651 7.19804 11.7974 5.58124 14.9135C3.96443 18.0297 3.12193 21.4894 3.12501 25C3.12619 30.1034 4.92461 35.0434 8.2047 38.9531L8.17345 38.9797C8.28282 39.1109 8.40782 39.2234 8.52032 39.3531C8.66095 39.514 8.81251 39.6656 8.95782 39.8219C9.39532 40.2969 9.84532 40.7531 10.3172 41.1812C10.4609 41.3125 10.6094 41.4344 10.7547 41.5594C11.2547 41.9906 11.7688 42.4 12.3016 42.7812C12.3703 42.8281 12.4328 42.889 12.5016 42.9375V42.9187C16.1611 45.494 20.5267 46.8761 25.0016 46.8761C29.4764 46.8761 33.842 45.494 37.5016 42.9187V42.9375C37.5703 42.889 37.6313 42.8281 37.7016 42.7812C38.2328 42.3984 38.7484 41.9906 39.2484 41.5594C39.3938 41.4344 39.5422 41.3109 39.6859 41.1812C40.1578 40.7515 40.6078 40.2969 41.0453 39.8219C41.1906 39.6656 41.3406 39.514 41.4828 39.3531C41.5938 39.2234 41.7203 39.1109 41.8297 38.9781L41.7953 38.9531ZM25 12.5C26.3907 12.5 27.7501 12.9124 28.9064 13.685C30.0626 14.4576 30.9639 15.5557 31.496 16.8405C32.0282 18.1253 32.1675 19.539 31.8962 20.903C31.6249 22.2669 30.9552 23.5197 29.9719 24.5031C28.9885 25.4864 27.7357 26.1561 26.3717 26.4274C25.0078 26.6987 23.5941 26.5594 22.3093 26.0273C21.0245 25.4951 19.9263 24.5939 19.1537 23.4376C18.3811 22.2813 17.9688 20.9219 17.9688 19.5312C17.9688 17.6664 18.7095 15.878 20.0282 14.5594C21.3468 13.2408 23.1352 12.5 25 12.5ZM12.5109 38.9531C12.5381 36.9015 13.3718 34.943 14.8318 33.5014C16.2918 32.0599 18.2607 31.251 20.3125 31.25H29.6875C31.7393 31.251 33.7082 32.0599 35.1682 33.5014C36.6282 34.943 37.462 36.9015 37.4891 38.9531C34.0623 42.0411 29.6129 43.7501 25 43.7501C20.3871 43.7501 15.9378 42.0411 12.5109 38.9531Z" fill="black"/>
</svg>
