<svg width="250" height="60" viewBox="0 0 250 60" fill="none" xmlns="http://www.w3.org/2000/svg">
<path d="M2.16718 46.8731C0.722394 46.8731 0 46.0991 0 44.5511V4.79876C0 3.25077 0.722394 2.47678 2.16718 2.47678H6.87306C8.31785 2.47678 9.04025 3.25077 9.04025 4.79876V20.4025H9.96904C11.3519 20.4025 12.7761 19.8246 14.2415 18.6687C15.7069 17.5129 16.9866 16.0784 18.0805 14.3653L24.582 4.30341C25.3664 3.08566 26.2951 2.47678 27.3684 2.47678H32.8483C34.8504 2.47678 35.2425 3.36429 34.0248 5.13932L25.6966 17.3375C24.6646 18.8442 23.6429 20.1032 22.6316 21.1146C21.6409 22.1259 20.3922 23.1269 18.8854 24.1176V24.1486C20.4541 24.7472 21.8782 25.6037 23.1579 26.7183C24.4376 27.8122 25.8411 29.5769 27.3684 32.0124L34.9845 44.2105C36.0991 45.9856 35.7069 46.8731 33.808 46.8731H28.0186C26.8627 46.8731 25.934 46.2642 25.2322 45.0464L19.3808 34.9845C18.2869 33.0857 16.8937 31.4448 15.2012 30.0619C13.5294 28.6584 11.9401 27.9567 10.4334 27.9567H9.04025V44.5511C9.04025 46.0991 8.31785 46.8731 6.87306 46.8731H2.16718Z" fill="black"/>
<path d="M39.257 30.6192C39.257 25.356 40.6089 21.2281 43.3127 18.2353C46.0372 15.2425 50.0826 13.7461 55.4489 13.7461C60.8153 13.7461 64.8504 15.2425 67.5542 18.2353C70.2786 21.2281 71.6409 25.356 71.6409 30.6192C71.6409 35.8824 70.2786 40.0103 67.5542 43.0031C64.8504 45.9959 60.8153 47.4923 55.4489 47.4923C50.0826 47.4923 46.0372 45.9959 43.3127 43.0031C40.6089 40.0103 39.257 35.8824 39.257 30.6192ZM48.4211 30.6192C48.4211 34.5408 49.0196 37.3271 50.2167 38.9783C51.4345 40.6089 53.1785 41.4241 55.4489 41.4241C57.7193 41.4241 59.453 40.6089 60.6502 38.9783C61.8679 37.3271 62.4768 34.5408 62.4768 30.6192C62.4768 26.6976 61.8679 23.9216 60.6502 22.291C59.453 20.6398 57.7193 19.8142 55.4489 19.8142C53.1785 19.8142 51.4345 20.6398 50.2167 22.291C49.0196 23.9216 48.4211 26.6976 48.4211 30.6192Z" fill="black"/>
<path d="M80.1858 59.257C78.9474 59.257 78.3282 58.6378 78.3282 57.3994V16.2229C78.3282 14.9845 78.9474 14.3653 80.1858 14.3653H85.0774C86.1094 14.3653 86.6667 14.9845 86.7492 16.2229L86.8731 18.0186H86.9969C88.0702 16.2435 89.2673 15.0877 90.5882 14.5511C91.9092 14.0144 93.4984 13.7461 95.356 13.7461C100.206 13.7461 103.612 15.4283 105.573 18.7926C107.554 22.1362 108.545 26.0784 108.545 30.6192C108.545 35.16 107.554 39.1125 105.573 42.4768C103.612 45.8204 100.206 47.4923 95.356 47.4923C93.4984 47.4923 91.9092 47.2239 90.5882 46.6873C89.2673 46.1507 88.0702 44.9948 86.9969 43.2198H86.8731C86.9556 44.0454 86.9969 44.871 86.9969 45.6966V57.3994C86.9969 58.6378 86.3777 59.257 85.1393 59.257H80.1858ZM86.9969 32.0124C86.9969 34.7988 87.5439 37.0691 88.6378 38.8235C89.7523 40.5573 91.0836 41.4241 92.6316 41.4241C95.418 41.4241 97.2343 40.4541 98.0805 38.5139C98.9474 36.5531 99.3808 33.9216 99.3808 30.6192C99.3808 27.3168 98.9474 24.6956 98.0805 22.7554C97.2343 20.7946 95.418 19.8142 92.6316 19.8142C91.0836 19.8142 89.7523 20.6914 88.6378 22.4458C87.5439 24.1796 86.9969 26.4396 86.9969 29.226V32.0124Z" fill="black"/>
<path d="M113.498 30.6192C113.498 25.356 114.85 21.2281 117.554 18.2353C120.279 15.2425 124.324 13.7461 129.69 13.7461C135.057 13.7461 139.092 15.2425 141.796 18.2353C144.52 21.2281 145.882 25.356 145.882 30.6192C145.882 35.8824 144.52 40.0103 141.796 43.0031C139.092 45.9959 135.057 47.4923 129.69 47.4923C124.324 47.4923 120.279 45.9959 117.554 43.0031C114.85 40.0103 113.498 35.8824 113.498 30.6192ZM122.663 30.6192C122.663 34.5408 123.261 37.3271 124.458 38.9783C125.676 40.6089 127.42 41.4241 129.69 41.4241C131.961 41.4241 133.695 40.6089 134.892 38.9783C136.109 37.3271 136.718 34.5408 136.718 30.6192C136.718 26.6976 136.109 23.9216 134.892 22.291C133.695 20.6398 131.961 19.8142 129.69 19.8142C127.42 19.8142 125.676 20.6398 124.458 22.291C123.261 23.9216 122.663 26.6976 122.663 30.6192Z" fill="black"/>
<path d="M150.96 28.3591C150.96 26.0062 151.176 23.2095 151.61 19.969C152.064 16.7286 152.673 14.0867 153.437 12.0433C154.221 10 155.201 8.36945 156.378 7.1517C157.554 5.93395 158.968 4.9226 160.619 4.11765C162.27 3.29205 163.798 2.78638 165.201 2.60062C167.265 2.31166 169.133 2.14654 170.805 2.10526C172.497 2.04334 173.715 1.92982 174.458 1.76471C175.263 1.57895 175.831 1.23839 176.161 0.743034C176.491 0.247678 177.131 0 178.08 0H180.248C181.053 0 181.455 0.464396 181.455 1.39319C181.455 2.94118 180.939 4.31373 179.907 5.51084C178.896 6.68731 177.482 7.43034 175.666 7.73994C174.819 7.88442 173.664 8.00826 172.198 8.11145C170.753 8.19401 169.154 8.32817 167.399 8.51393C165.645 8.69969 163.86 9.24665 162.043 10.1548C158.308 12.033 156.357 15.5521 156.192 20.7121L156.44 20.8359C156.852 19.3086 158.07 17.7503 160.093 16.161C162.116 14.5511 164.737 13.7461 167.957 13.7461C172.724 13.7461 176.481 15.2425 179.226 18.2353C181.971 21.2281 183.344 25.356 183.344 30.6192C183.344 35.8824 181.981 40.0103 179.257 43.0031C176.553 45.9959 172.518 47.4923 167.152 47.4923C161.517 47.4923 157.41 45.8101 154.83 42.4458C152.25 39.0815 150.96 34.386 150.96 28.3591ZM160.124 30.6192C160.124 34.5408 160.722 37.3271 161.92 38.9783C163.137 40.6089 164.881 41.4241 167.152 41.4241C169.422 41.4241 171.156 40.6089 172.353 38.9783C173.571 37.3271 174.18 34.5408 174.18 30.6192C174.18 26.6976 173.571 23.9216 172.353 22.291C171.156 20.6398 169.422 19.8142 167.152 19.8142C164.881 19.8142 163.137 20.6398 161.92 22.291C160.722 23.9216 160.124 26.6976 160.124 30.6192Z" fill="black"/>
<path d="M191.889 46.8731C190.65 46.8731 190.031 46.2539 190.031 45.0155V16.2229C190.031 14.9845 190.65 14.3653 191.889 14.3653H196.842C198.08 14.3653 198.7 14.9845 198.7 16.2229V26.8111H199.412C200.423 26.8111 201.311 26.3983 202.074 25.5728C202.838 24.7472 203.509 23.839 204.087 22.8483L208.359 15.6347C208.854 14.7884 209.659 14.3653 210.774 14.3653H215.851C217.461 14.3653 217.781 15.129 216.811 16.6563L211.734 24.7059C210.97 25.9236 210.052 27.0072 208.978 27.9567C207.926 28.8854 206.883 29.4737 205.851 29.7214V29.7833C207.379 30.1135 208.535 30.6502 209.319 31.3932C210.103 32.1156 211.053 33.4365 212.167 35.356L217.523 44.582C218.411 46.1094 218.091 46.8731 216.563 46.8731H211.269C210.155 46.8731 209.309 46.3364 208.731 45.2632L203.932 36.4087C203.54 35.6863 202.931 34.9432 202.105 34.1796C201.28 33.3953 200.392 33.0031 199.443 33.0031H198.7V45.0155C198.7 46.2539 198.08 46.8731 196.842 46.8731H191.889Z" fill="black"/>
<path d="M221.919 38.2043C221.919 34.0764 223.891 31.0836 227.833 29.226C231.775 27.3684 236.275 26.3777 241.331 26.2539V25.0155C241.331 23.1166 240.857 21.775 239.907 20.9907C238.958 20.2064 237.637 19.8142 235.944 19.8142C234.747 19.8142 233.684 19.9897 232.755 20.3406C231.847 20.6708 231.053 21.063 230.372 21.517C229.711 21.9505 229.112 22.3942 228.576 22.8483C227.626 23.6739 226.842 23.7152 226.223 22.9721L223.653 19.8142C223.013 19.0299 223.168 18.225 224.118 17.3994C224.84 16.7595 225.676 16.2023 226.625 15.7276C227.595 15.2528 228.875 14.8091 230.464 14.3963C232.054 13.9628 234.118 13.7461 236.656 13.7461C240.949 13.7461 244.241 14.7368 246.533 16.7183C248.844 18.6997 250 21.6202 250 25.4799V45.0155C250 46.2539 249.381 46.8731 248.142 46.8731H243.065C241.95 46.8731 241.393 46.2539 241.393 45.0155V44.0867H241.331C240.114 45.2632 238.648 46.13 236.935 46.6873C235.243 47.2239 233.684 47.4923 232.26 47.4923C228.875 47.4923 226.305 46.6667 224.551 45.0155C222.797 43.3437 221.919 41.0733 221.919 38.2043ZM231.084 38.0186C231.084 38.741 231.228 39.3705 231.517 39.9071C231.806 40.4231 232.26 40.805 232.879 41.0526C233.498 41.3003 234.19 41.4241 234.954 41.4241C236.006 41.4241 237.028 41.2797 238.019 40.9907C239.009 40.7018 240.114 40.0206 241.331 38.9474V32.2291C237.864 32.6213 235.542 33.1269 234.365 33.7461C233.189 34.3653 232.343 35.0052 231.827 35.6656C231.331 36.3261 231.084 37.1104 231.084 38.0186Z" fill="black"/>
</svg>
